<svg xmlns="http://www.w3.org/2000/svg" xmlns:svg="http://www.w3.org/2000/svg" id="svg8" width="491.429" height="491.429" version="1.1" viewBox="0 0 130.024 130.024"><metadata id="metadata5"/><g id="layer1" transform="translate(421.2211,-22.852974)"><circle style="fill:#ffcd99;fill-opacity:1;stroke:none;stroke-width:.26458332;stroke-opacity:1" id="path814" cx="-356.209" cy="87.865" r="65.012"/><g id="g818" transform="matrix(1.0821281,0,0,1.0821281,30.170608,-8.3132059)"><path id="path819" d="m -315.57345,110.19541 c -5.19921,9.0053 -18.54073,-2.05456 -28.04016,2.17486 -9.49944,4.22943 -10.20758,21.54459 -20.37877,19.38264 -10.1712,-2.16196 -3.7754,-18.26817 -10.73331,-25.99571 -6.9579,-7.727538 -23.64443,-3.05034 -24.73136,-13.391801 -1.08694,-10.341463 16.2074,-9.235794 21.40661,-18.241096 5.19921,-9.005302 -4.40549,-23.429799 5.09395,-27.65922 9.49943,-4.229421 13.79212,12.560136 23.96332,14.722091 10.17119,2.161954 20.92169,-11.430075 27.87959,-3.702538 6.95791,7.727537 -7.68339,16.998385 -6.59646,27.339848 1.08693,10.341464 17.3358,16.365626 12.13659,25.370926 z" style="fill:#ffef4c;fill-opacity:1;stroke:#fff;stroke-width:7.16499996;stroke-miterlimit:4;stroke-dasharray:none;stroke-opacity:1"/><circle id="path816" cx="-355.468" cy="87.82" r="13.229" style="fill:#00d2f2;fill-opacity:1;stroke:#fff;stroke-width:7.16499996;stroke-miterlimit:4;stroke-dasharray:none;stroke-opacity:1"/></g></g></svg>